<svg width="102" height="61" viewBox="0 0 102 61" fill="none" xmlns="http://www.w3.org/2000/svg">
<path d="M101.086 59.88H96.298V34C96.298 32.3431 97.6412 31 99.298 31H101.086V59.88Z" fill="white"/>
<path fill-rule="evenodd" clip-rule="evenodd" d="M69.036 41.374C67.44 39.7273 65.2613 38.904 62.5 38.904C59.6627 38.904 57.37 39.8287 55.622 41.678C53.874 43.5273 53 46.2127 53 49.734C53 52.0647 53.4307 54.0153 54.292 55.586C55.1787 57.1567 56.3947 58.3347 57.94 59.12C59.5107 59.88 61.2967 60.26 63.298 60.26C64.818 60.26 66.1227 60.146 67.212 59.918C68.3013 59.69 69.3527 59.3353 70.366 58.854V55.016C69.2513 55.5227 68.162 55.9153 67.098 56.194C66.034 56.4473 64.8433 56.574 63.526 56.574C61.778 56.574 60.41 56.0673 59.422 55.054C58.434 54.0153 57.9147 52.5587 57.864 50.684H71.468V48.252C71.468 45.3133 70.6573 43.0207 69.036 41.374ZM59.346 43.692C60.1567 42.856 61.208 42.438 62.5 42.438C63.9693 42.438 65.046 42.9067 65.73 43.844C66.4393 44.756 66.8067 45.9213 66.832 47.34H57.978C58.1047 45.7187 58.5607 44.5027 59.346 43.692Z" fill="white"/>
<path d="M72.4759 39.284L80.3039 59.88H85.3959L93.2239 39.284H88.1699L84.0659 51.178C83.8126 51.9127 83.5719 52.7233 83.3439 53.61C83.1159 54.4713 82.9639 55.2187 82.8879 55.852H82.7359C82.6852 55.244 82.5459 54.4967 82.3179 53.61C82.1152 52.7233 81.8872 51.9127 81.6339 51.178L77.5299 39.284H72.4759Z" fill="white"/>
<path d="M0 0V48C0 54.6274 5.37258 60 12 60H45V34C45 32.3431 43.6569 31 42 31H38.8443C36.4014 31 34.9827 28.2363 36.4067 26.2513L47.0624 11.3979C48.2593 9.72952 50.7407 9.72952 51.9376 11.3979L60 22.6364V12C60 5.37259 54.6274 0 48 0H0Z" fill="white"/>
</svg>
