<svg width="112" height="61" viewBox="0 0 112 61" fill="none" xmlns="http://www.w3.org/2000/svg">
<path d="M111.086 59.88H106.298V34C106.298 32.3431 107.641 31 109.298 31H111.086V59.88Z" fill="#5015CF"/>
<path fill-rule="evenodd" clip-rule="evenodd" d="M79.036 41.374C77.44 39.7273 75.2613 38.904 72.5 38.904C69.6627 38.904 67.37 39.8287 65.622 41.678C63.874 43.5273 63 46.2127 63 49.734C63 52.0647 63.4307 54.0153 64.292 55.586C65.1787 57.1567 66.3947 58.3347 67.94 59.12C69.5107 59.88 71.2967 60.26 73.298 60.26C74.818 60.26 76.1227 60.146 77.212 59.918C78.3013 59.69 79.3527 59.3353 80.366 58.854V55.016C79.2513 55.5227 78.162 55.9153 77.098 56.194C76.034 56.4473 74.8433 56.574 73.526 56.574C71.778 56.574 70.41 56.0673 69.422 55.054C68.434 54.0153 67.9147 52.5587 67.864 50.684H81.468V48.252C81.468 45.3133 80.6573 43.0207 79.036 41.374ZM69.346 43.692C70.1567 42.856 71.208 42.438 72.5 42.438C73.9693 42.438 75.046 42.9067 75.73 43.844C76.4393 44.756 76.8067 45.9213 76.832 47.34H67.978C68.1047 45.7187 68.5607 44.5027 69.346 43.692Z" fill="#5015CF"/>
<path d="M82.4759 39.284L90.3039 59.88H95.3959L103.224 39.284H98.1699L94.0659 51.178C93.8126 51.9127 93.5719 52.7233 93.3439 53.61C93.1159 54.4713 92.9639 55.2187 92.8879 55.852H92.7359C92.6852 55.244 92.5459 54.4967 92.3179 53.61C92.1152 52.7233 91.8872 51.9127 91.6339 51.178L87.5299 39.284H82.4759Z" fill="#5015CF"/>
<path d="M0 0V57C0 58.6569 1.34315 60 3 60H45V34C45 32.3431 43.6569 31 42 31H38.8443C36.4014 31 34.9827 28.2363 36.4067 26.2513L47.0624 11.3979C48.2593 9.72952 50.7407 9.72952 51.9376 11.3979L60 22.6364V3C60 1.34315 58.6569 0 57 0H0Z" fill="#5015CF"/>
<path d="M58 31H60V60H55V34C55 32.3431 56.3431 31 58 31Z" fill="#5015CF"/>
</svg>
