<svg width="230" height="192" viewBox="0 0 230 192" fill="none" xmlns="http://www.w3.org/2000/svg">
<path d="M185.3 112.866C185.3 109.165 189.181 106.746 192.504 108.377L224.31 123.991C227.212 125.416 228.02 129.177 225.959 131.668L212.527 147.898C211.287 149.396 211.028 151.476 211.863 153.232L223.77 178.286C225.811 182.581 221.27 187.031 217.018 184.905L188.064 170.428C186.37 169.581 185.3 167.85 185.3 165.956V112.866Z" fill="#200063"/>
<path d="M44.7002 112.866C44.7002 109.165 40.8191 106.746 37.4968 108.377L5.69031 123.991C2.78881 125.416 1.98091 129.177 4.0417 131.668L17.4738 147.898C18.7133 149.396 18.9723 151.476 18.1378 153.232L6.23081 178.286C4.18995 182.581 8.73019 187.031 12.9828 184.905L41.9363 170.428C43.6302 169.581 44.7002 167.85 44.7002 165.956V112.866Z" fill="#200063"/>
<path d="M85.3358 65.1414C85.3358 62.38 83.0972 60.1414 80.3358 60.1414L67.3362 60.1414C62.8817 60.1414 60.6508 54.7557 63.8007 51.6059L111.871 3.53565C113.824 1.58303 116.989 1.58304 118.942 3.53566L167.012 51.6059C170.162 54.7557 167.931 60.1414 163.477 60.1414L150.477 60.1414C147.716 60.1414 145.477 62.38 145.477 65.1414L145.477 92.7298C145.477 95.4912 143.239 97.7298 140.477 97.7298L90.3358 97.7298C87.5744 97.7298 85.3358 95.4912 85.3358 92.7298L85.3358 65.1414ZM90.3358 112.765C87.5744 112.765 85.3358 115.004 85.3358 117.765L85.3358 122.8C85.3358 125.562 87.5744 127.8 90.3358 127.8L140.477 127.8C143.239 127.8 145.477 125.562 145.477 122.8L145.477 117.765C145.477 115.004 143.239 112.765 140.477 112.765L90.3358 112.765ZM90.3358 142.941C87.5744 142.941 85.3358 145.18 85.3358 147.941L85.3358 152.871C85.3358 155.633 87.5744 157.871 90.3358 157.871L140.477 157.871C143.239 157.871 145.477 155.632 145.477 152.871L145.477 147.941C145.477 145.18 143.239 142.941 140.477 142.941L90.3358 142.941ZM89.0946 172.906C87.0187 172.906 85.3358 174.589 85.3358 176.665V176.665C85.3358 178.741 87.0187 180.424 89.0946 180.424L141.718 180.424C143.794 180.424 145.477 178.741 145.477 176.665V176.665C145.477 174.589 143.794 172.906 141.718 172.906L89.0946 172.906Z" fill="#F2C94C"/>
<path d="M26.0073 96.8772C26.0073 94.3409 26.0073 93.0727 26.4978 92.0485C26.8912 91.2271 27.5177 90.5134 28.2812 90.0168C29.2331 89.3976 30.4768 89.235 32.9643 88.9098C48.8275 86.8356 88.4348 82.0513 116.041 82.0851C143.201 82.1185 182.141 86.8445 197.847 88.906C200.337 89.2329 201.582 89.3964 202.533 90.0156C203.297 90.5123 203.923 91.2258 204.316 92.0471C204.806 93.071 204.806 94.3387 204.806 96.8741V144.781C204.806 148.18 204.806 149.879 204.107 151.058C203.538 152.017 202.694 152.74 201.658 153.152C200.385 153.66 198.695 153.395 195.315 152.865C178.297 150.195 141.952 145.018 116.041 145.018C90.0112 145.018 52.7489 150.243 35.472 152.901C32.1009 153.42 30.4153 153.679 29.1453 153.17C28.1134 152.756 27.2704 152.033 26.7041 151.076C26.0073 149.898 26.0073 148.205 26.0073 144.819V96.8772Z" fill="#5015CF"/>
<circle cx="200.335" cy="71.9257" r="7.72085" fill="#9E7FE1"/>
<circle cx="164.17" cy="76.3957" r="3.25088" fill="#604698"/>
<circle cx="12.1908" cy="85.3356" r="12.1908" fill="#9983C9"/>
<circle cx="34.1344" cy="44.6996" r="4.0636" fill="#DFD5F3"/>
</svg>
