<svg width="24" height="24" viewBox="0 0 24 24" fill="none" xmlns="http://www.w3.org/2000/svg">
<path d="M19.5 11.625C19.5 10.5909 18.6591 9.75 17.625 9.75H16.6875V6.9375C16.6875 4.35281 14.5847 2.25 12 2.25C9.41531 2.25 7.3125 4.35281 7.3125 6.9375V9.75H6.375C5.34094 9.75 4.5 10.5909 4.5 11.625V19.125C4.5 20.1591 5.34094 21 6.375 21H17.625C18.6591 21 19.5 20.1591 19.5 19.125V11.625ZM9.1875 6.9375C9.1875 5.38688 10.4494 4.125 12 4.125C13.5506 4.125 14.8125 5.38688 14.8125 6.9375V9.75H9.1875V6.9375Z" fill="#EB5757"/>
<path d="M6.27002 12.961C6.48269 12.873 6.70269 12.774 6.93002 12.664C7.16469 12.5467 7.39202 12.422 7.61202 12.29C7.83202 12.1507 8.04102 12.0077 8.23902 11.861C8.44435 11.707 8.62769 11.5457 8.78902 11.377H9.93302V19H8.29402V13.511C8.07402 13.6577 7.82835 13.7933 7.55702 13.918C7.28569 14.0353 7.02169 14.138 6.76502 14.226L6.27002 12.961Z" fill="white"/>
<path d="M17.626 15.172C17.626 16.4553 17.3803 17.4417 16.889 18.131C16.405 18.813 15.734 19.154 14.876 19.154C14.018 19.154 13.3433 18.813 12.852 18.131C12.368 17.4417 12.126 16.4553 12.126 15.172C12.126 14.534 12.1883 13.9693 12.313 13.478C12.445 12.9867 12.632 12.5723 12.874 12.235C13.116 11.8977 13.4056 11.641 13.743 11.465C14.0803 11.289 14.458 11.201 14.876 11.201C15.734 11.201 16.405 11.5457 16.889 12.235C17.3803 12.917 17.626 13.896 17.626 15.172ZM15.954 15.172C15.954 14.7907 15.9356 14.446 15.899 14.138C15.8623 13.8227 15.8036 13.5513 15.723 13.324C15.6423 13.0967 15.5323 12.9207 15.393 12.796C15.2536 12.6713 15.0813 12.609 14.876 12.609C14.6706 12.609 14.4983 12.6713 14.359 12.796C14.227 12.9207 14.117 13.0967 14.029 13.324C13.9483 13.5513 13.8896 13.8227 13.853 14.138C13.8163 14.446 13.798 14.7907 13.798 15.172C13.798 15.5533 13.8163 15.9017 13.853 16.217C13.8896 16.5323 13.9483 16.8037 14.029 17.031C14.117 17.2583 14.227 17.4343 14.359 17.559C14.4983 17.6837 14.6706 17.746 14.876 17.746C15.0813 17.746 15.2536 17.6837 15.393 17.559C15.5323 17.4343 15.6423 17.2583 15.723 17.031C15.8036 16.8037 15.8623 16.5323 15.899 16.217C15.9356 15.9017 15.954 15.5533 15.954 15.172Z" fill="white"/>
</svg>
