<svg width="24" height="24" viewBox="0 0 24 24" fill="none" xmlns="http://www.w3.org/2000/svg">
<path d="M19.5 11.625C19.5 10.5909 18.6591 9.75 17.625 9.75H16.6875V6.9375C16.6875 4.35281 14.5847 2.25 12 2.25C9.41531 2.25 7.3125 4.35281 7.3125 6.9375V9.75H6.375C5.34094 9.75 4.5 10.5909 4.5 11.625V19.125C4.5 20.1591 5.34094 21 6.375 21H17.625C18.6591 21 19.5 20.1591 19.5 19.125V11.625ZM9.1875 6.9375C9.1875 5.38688 10.4494 4.125 12 4.125C13.5506 4.125 14.8125 5.38688 14.8125 6.9375V9.75H9.1875V6.9375Z" fill="#EB5757"/>
<path d="M10.5619 19C10.6059 18.4647 10.6976 17.9073 10.8369 17.328C10.9762 16.7487 11.1449 16.1803 11.3429 15.623C11.5482 15.0657 11.7756 14.5413 12.0249 14.05C12.2742 13.5513 12.5272 13.1223 12.7839 12.763H9.4729V11.366H14.8079V12.554C14.5732 12.8107 14.3129 13.1663 14.0269 13.621C13.7482 14.0757 13.4806 14.5927 13.2239 15.172C12.9746 15.744 12.7546 16.36 12.5639 17.02C12.3806 17.68 12.2669 18.34 12.2229 19H10.5619Z" fill="white"/>
</svg>
