<svg width="24" height="24" viewBox="0 0 24 24" fill="none" xmlns="http://www.w3.org/2000/svg">
<path d="M19.5 11.625C19.5 10.5909 18.6591 9.75 17.625 9.75H16.6875V6.9375C16.6875 4.35281 14.5847 2.25 12 2.25C9.41531 2.25 7.3125 4.35281 7.3125 6.9375V9.75H6.375C5.34094 9.75 4.5 10.5909 4.5 11.625V19.125C4.5 20.1591 5.34094 21 6.375 21H17.625C18.6591 21 19.5 20.1591 19.5 19.125V11.625ZM9.1875 6.9375C9.1875 5.38688 10.4494 4.125 12 4.125C13.5506 4.125 14.8125 5.38688 14.8125 6.9375V9.75H9.1875V6.9375Z" fill="#EB5757"/>
<path d="M12.509 13.379C12.223 13.753 11.9186 14.16 11.596 14.6C11.2733 15.04 11.002 15.491 10.782 15.953H12.509V13.379ZM14.115 11.377V15.953H14.929V17.295H14.115V19H12.509V17.295H9.21997V16.096C9.3813 15.7733 9.58297 15.4103 9.82497 15.007C10.067 14.5963 10.3346 14.1783 10.628 13.753C10.9286 13.3203 11.244 12.8987 11.574 12.488C11.904 12.0773 12.234 11.707 12.564 11.377H14.115Z" fill="white"/>
</svg>
