<svg width="24" height="24" viewBox="0 0 24 24" fill="none" xmlns="http://www.w3.org/2000/svg">
<path d="M19.5 11.625C19.5 10.5909 18.6591 9.75 17.625 9.75H16.6875V6.9375C16.6875 4.35281 14.5847 2.25 12 2.25C9.41531 2.25 7.3125 4.35281 7.3125 6.9375V9.75H6.375C5.34094 9.75 4.5 10.5909 4.5 11.625V19.125C4.5 20.1591 5.34094 21 6.375 21H17.625C18.6591 21 19.5 20.1591 19.5 19.125V11.625ZM9.1875 6.9375C9.1875 5.38688 10.4494 4.125 12 4.125C13.5506 4.125 14.8125 5.38688 14.8125 6.9375V9.75H9.1875V6.9375Z" fill="#EB5757"/>
<path d="M11.5079 19.165C11.3099 19.165 11.1009 19.1503 10.8809 19.121C10.6609 19.099 10.4482 19.066 10.2429 19.022C10.0376 18.978 9.85056 18.9303 9.68189 18.879C9.51322 18.8277 9.38122 18.78 9.28589 18.736L9.60489 17.372C9.79556 17.4527 10.0376 17.5407 10.3309 17.636C10.6316 17.724 11.0019 17.768 11.4419 17.768C11.9479 17.768 12.3182 17.6727 12.5529 17.482C12.7876 17.2913 12.9049 17.0347 12.9049 16.712C12.9049 16.514 12.8609 16.349 12.7729 16.217C12.6922 16.0777 12.5786 15.9677 12.4319 15.887C12.2852 15.799 12.1092 15.7403 11.9039 15.711C11.7059 15.6743 11.4932 15.656 11.2659 15.656H10.6279V14.336H11.3539C11.5152 14.336 11.6692 14.3213 11.8159 14.292C11.9699 14.2627 12.1056 14.215 12.2229 14.149C12.3402 14.0757 12.4319 13.9803 12.4979 13.863C12.5712 13.7383 12.6079 13.5843 12.6079 13.401C12.6079 13.2617 12.5786 13.1407 12.5199 13.038C12.4612 12.9353 12.3842 12.851 12.2889 12.785C12.2009 12.719 12.0946 12.6713 11.9699 12.642C11.8526 12.6053 11.7316 12.587 11.6069 12.587C11.2916 12.587 10.9982 12.6347 10.7269 12.73C10.4629 12.8253 10.2209 12.9427 10.0009 13.082L9.41789 11.883C9.53522 11.8097 9.67089 11.7327 9.82489 11.652C9.98622 11.5713 10.1622 11.498 10.3529 11.432C10.5436 11.366 10.7452 11.311 10.9579 11.267C11.1779 11.223 11.4089 11.201 11.6509 11.201C12.0982 11.201 12.4832 11.256 12.8059 11.366C13.1359 11.4687 13.4072 11.619 13.6199 11.817C13.8326 12.0077 13.9902 12.235 14.0929 12.499C14.1956 12.7557 14.2469 13.038 14.2469 13.346C14.2469 13.6467 14.1626 13.94 13.9939 14.226C13.8252 14.5047 13.5979 14.7173 13.3119 14.864C13.7079 15.0253 14.0122 15.2673 14.2249 15.59C14.4449 15.9053 14.5549 16.2867 14.5549 16.734C14.5549 17.086 14.4962 17.4123 14.3789 17.713C14.2616 18.0063 14.0782 18.263 13.8289 18.483C13.5796 18.6957 13.2606 18.8643 12.8719 18.989C12.4906 19.1063 12.0359 19.165 11.5079 19.165Z" fill="white"/>
</svg>
