<svg width="24" height="24" viewBox="0 0 24 24" fill="none" xmlns="http://www.w3.org/2000/svg">
<path d="M19.5 11.625C19.5 10.5909 18.6591 9.75 17.625 9.75H16.6875V6.9375C16.6875 4.35281 14.5847 2.25 12 2.25C9.41531 2.25 7.3125 4.35281 7.3125 6.9375V9.75H6.375C5.34094 9.75 4.5 10.5909 4.5 11.625V19.125C4.5 20.1591 5.34094 21 6.375 21H17.625C18.6591 21 19.5 20.1591 19.5 19.125V11.625ZM9.1875 6.9375C9.1875 5.38688 10.4494 4.125 12 4.125C13.5506 4.125 14.8125 5.38688 14.8125 6.9375V9.75H9.1875V6.9375Z" fill="#EB5757"/>
<path d="M12.96 16.756C12.96 16.5433 12.9123 16.3563 12.817 16.195C12.7216 16.0263 12.5566 15.887 12.322 15.777C12.0873 15.667 11.772 15.5827 11.376 15.524C10.98 15.4653 10.4813 15.436 9.87997 15.436C9.96064 14.754 10.0266 14.061 10.078 13.357C10.1293 12.653 10.1696 11.993 10.199 11.377H14.324V12.752H11.574C11.5593 13.016 11.541 13.2727 11.519 13.522C11.5043 13.764 11.486 13.9767 11.464 14.16C12.5346 14.2333 13.323 14.4863 13.829 14.919C14.3423 15.3443 14.599 15.9383 14.599 16.701C14.599 17.053 14.5366 17.3793 14.412 17.68C14.2873 17.9807 14.1003 18.241 13.851 18.461C13.6016 18.681 13.2863 18.8533 12.905 18.978C12.531 19.1027 12.091 19.165 11.585 19.165C11.387 19.165 11.178 19.1503 10.958 19.121C10.7453 19.099 10.5363 19.066 10.331 19.022C10.133 18.9853 9.9533 18.945 9.79197 18.901C9.63064 18.857 9.50597 18.813 9.41797 18.769L9.71497 17.416C9.8983 17.4967 10.1403 17.5773 10.441 17.658C10.7416 17.7313 11.101 17.768 11.519 17.768C12.025 17.768 12.3916 17.669 12.619 17.471C12.8463 17.2657 12.96 17.0273 12.96 16.756Z" fill="white"/>
</svg>
