<svg width="24" height="24" viewBox="0 0 24 24" fill="none" xmlns="http://www.w3.org/2000/svg">
<path d="M19.5 11.625C19.5 10.5909 18.6591 9.75 17.625 9.75H16.6875V6.9375C16.6875 4.35281 14.5847 2.25 12 2.25C9.41531 2.25 7.3125 4.35281 7.3125 6.9375V9.75H6.375C5.34094 9.75 4.5 10.5909 4.5 11.625V19.125C4.5 20.1591 5.34094 21 6.375 21H17.625C18.6591 21 19.5 20.1591 19.5 19.125V11.625ZM9.1875 6.9375C9.1875 5.38688 10.4494 4.125 12 4.125C13.5506 4.125 14.8125 5.38688 14.8125 6.9375V9.75H9.1875V6.9375Z" fill="#EB5757"/>
<path d="M9.27002 12.961C9.48269 12.873 9.70269 12.774 9.93002 12.664C10.1647 12.5467 10.392 12.422 10.612 12.29C10.832 12.1507 11.041 12.0077 11.239 11.861C11.4444 11.707 11.6277 11.5457 11.789 11.377H12.933V19H11.294V13.511C11.074 13.6577 10.8284 13.7933 10.557 13.918C10.2857 14.0353 10.0217 14.138 9.76502 14.226L9.27002 12.961Z" fill="white"/>
</svg>
