<svg width="24" height="24" viewBox="0 0 24 24" fill="none" xmlns="http://www.w3.org/2000/svg">
<path d="M19.5 11.625C19.5 10.5909 18.6591 9.75 17.625 9.75H16.6875V6.9375C16.6875 4.35281 14.5847 2.25 12 2.25C9.41531 2.25 7.3125 4.35281 7.3125 6.9375V9.75H6.375C5.34094 9.75 4.5 10.5909 4.5 11.625V19.125C4.5 20.1591 5.34094 21 6.375 21H17.625C18.6591 21 19.5 20.1591 19.5 19.125V11.625ZM9.1875 6.9375C9.1875 5.38688 10.4494 4.125 12 4.125C13.5506 4.125 14.8125 5.38688 14.8125 6.9375V9.75H9.1875V6.9375Z" fill="#EB5757"/>
<path d="M12.014 15.414C11.8526 15.414 11.6803 15.4287 11.497 15.458C11.3136 15.4873 11.1706 15.5277 11.068 15.579C11.068 15.6083 11.0643 15.6523 11.057 15.711C11.057 15.7697 11.057 15.821 11.057 15.865C11.057 16.129 11.0753 16.3783 11.112 16.613C11.1486 16.8477 11.211 17.053 11.299 17.229C11.387 17.405 11.5043 17.5443 11.651 17.647C11.7976 17.7423 11.981 17.79 12.201 17.79C12.3843 17.79 12.5383 17.7533 12.663 17.68C12.795 17.5993 12.9013 17.5003 12.982 17.383C13.07 17.2657 13.1323 17.1373 13.169 16.998C13.213 16.8513 13.235 16.712 13.235 16.58C13.235 16.206 13.1396 15.92 12.949 15.722C12.7656 15.5167 12.454 15.414 12.014 15.414ZM12.223 14.138C12.6996 14.138 13.103 14.204 13.433 14.336C13.7703 14.4607 14.0453 14.633 14.258 14.853C14.4706 15.073 14.6246 15.3297 14.72 15.623C14.8153 15.9163 14.863 16.228 14.863 16.558C14.863 16.8513 14.808 17.152 14.698 17.46C14.5953 17.768 14.434 18.0467 14.214 18.296C14.0013 18.5453 13.7263 18.7507 13.389 18.912C13.059 19.0733 12.6666 19.154 12.212 19.154C11.2953 19.154 10.5986 18.8643 10.122 18.285C9.64532 17.7057 9.40698 16.9063 9.40698 15.887C9.40698 15.1537 9.52065 14.5047 9.74798 13.94C9.97532 13.3753 10.298 12.9023 10.716 12.521C11.1413 12.1323 11.651 11.839 12.245 11.641C12.8463 11.4357 13.521 11.3293 14.269 11.322C14.2836 11.5493 14.2983 11.773 14.313 11.993C14.3276 12.2057 14.3423 12.4293 14.357 12.664C13.983 12.6713 13.631 12.708 13.301 12.774C12.9783 12.8327 12.6813 12.928 12.41 13.06C12.146 13.192 11.915 13.3643 11.717 13.577C11.519 13.7823 11.365 14.0353 11.255 14.336C11.4163 14.2627 11.5813 14.2113 11.75 14.182C11.9186 14.1527 12.0763 14.138 12.223 14.138Z" fill="white"/>
</svg>
