<svg width="24" height="24" viewBox="0 0 24 24" fill="none" xmlns="http://www.w3.org/2000/svg">
<path d="M19.5 11.625C19.5 10.5909 18.6591 9.75 17.625 9.75H16.6875V6.9375C16.6875 4.35281 14.5847 2.25 12 2.25C9.41531 2.25 7.3125 4.35281 7.3125 6.9375V9.75H6.375C5.34094 9.75 4.5 10.5909 4.5 11.625V19.125C4.5 20.1591 5.34094 21 6.375 21H17.625C18.6591 21 19.5 20.1591 19.5 19.125V11.625ZM9.1875 6.9375C9.1875 5.38688 10.4494 4.125 12 4.125C13.5506 4.125 14.8125 5.38688 14.8125 6.9375V9.75H9.1875V6.9375Z" fill="#EB5757"/>
<path d="M14.83 16.877C14.83 17.207 14.7713 17.5113 14.654 17.79C14.544 18.0613 14.3753 18.2997 14.148 18.505C13.9206 18.7103 13.6346 18.8717 13.29 18.989C12.9526 19.099 12.5603 19.154 12.113 19.154C11.5996 19.154 11.1706 19.0843 10.826 18.945C10.4886 18.7983 10.2136 18.6187 10.001 18.406C9.79562 18.1933 9.64896 17.9623 9.56096 17.713C9.47296 17.4563 9.42896 17.2217 9.42896 17.009C9.42896 16.789 9.45829 16.5873 9.51696 16.404C9.57562 16.2207 9.65629 16.0557 9.75896 15.909C9.86162 15.755 9.97529 15.6157 10.1 15.491C10.232 15.3663 10.3713 15.249 10.518 15.139C10.2026 14.8823 9.96796 14.6293 9.81396 14.38C9.66729 14.1307 9.59396 13.8117 9.59396 13.423C9.59396 13.1297 9.65262 12.8473 9.76996 12.576C9.89462 12.3047 10.067 12.07 10.287 11.872C10.507 11.6667 10.771 11.5053 11.079 11.388C11.3943 11.2633 11.7426 11.201 12.124 11.201C12.5713 11.201 12.9526 11.267 13.268 11.399C13.5906 11.5237 13.8546 11.685 14.06 11.883C14.2653 12.081 14.412 12.3047 14.5 12.554C14.5953 12.796 14.643 13.038 14.643 13.28C14.643 13.632 14.5476 13.962 14.357 14.27C14.1736 14.5707 13.9426 14.809 13.664 14.985C14.082 15.2563 14.379 15.5423 14.555 15.843C14.7383 16.1363 14.83 16.481 14.83 16.877ZM11.024 16.943C11.024 17.031 11.0423 17.13 11.079 17.24C11.123 17.3427 11.189 17.438 11.277 17.526C11.365 17.614 11.4786 17.6873 11.618 17.746C11.7573 17.8047 11.926 17.834 12.124 17.834C12.5053 17.834 12.784 17.7423 12.96 17.559C13.136 17.3757 13.224 17.1703 13.224 16.943C13.224 16.7743 13.1836 16.624 13.103 16.492C13.0296 16.36 12.927 16.2463 12.795 16.151C12.663 16.0483 12.5053 15.9603 12.322 15.887C12.146 15.8063 11.9553 15.733 11.75 15.667C11.5446 15.821 11.3723 16.0007 11.233 16.206C11.0936 16.4113 11.024 16.657 11.024 16.943ZM13.059 13.324C13.059 13.2433 13.0406 13.159 13.004 13.071C12.9746 12.9757 12.9196 12.8877 12.839 12.807C12.7656 12.7263 12.6703 12.6603 12.553 12.609C12.4356 12.5503 12.2926 12.521 12.124 12.521C11.9626 12.521 11.8233 12.5467 11.706 12.598C11.5886 12.6493 11.4896 12.719 11.409 12.807C11.3356 12.8877 11.2806 12.9757 11.244 13.071C11.2073 13.1663 11.189 13.258 11.189 13.346C11.189 13.5807 11.2733 13.8007 11.442 14.006C11.618 14.2113 11.915 14.3873 12.333 14.534C12.5676 14.3873 12.7473 14.2187 12.872 14.028C12.9966 13.8373 13.059 13.6027 13.059 13.324Z" fill="white"/>
</svg>
