<svg width="24" height="24" viewBox="0 0 24 24" fill="none" xmlns="http://www.w3.org/2000/svg">
<path d="M17.1875 6.6875C17.1875 4.10281 15.0847 2 12.5 2C9.91531 2 7.8125 4.10281 7.8125 6.6875V9.5H6.875C5.84094 9.5 5 10.3409 5 11.375V18.875C5 19.9091 5.84094 20.75 6.875 20.75H18.125C19.1591 20.75 20 19.9091 20 18.875V11.375C20 10.3409 19.1591 9.5 18.125 9.5H9.6875V6.6875C9.6875 5.13687 10.9494 3.875 12.5 3.875C14.0506 3.875 15.3125 5.13687 15.3125 6.6875H17.1875Z" fill="#5015CF"/>
<path d="M6.77002 12.961C6.98269 12.873 7.20269 12.774 7.43002 12.664C7.66469 12.5467 7.89202 12.422 8.11202 12.29C8.33202 12.1507 8.54102 12.0077 8.73902 11.861C8.94435 11.707 9.12769 11.5457 9.28902 11.377H10.433V19H8.79402V13.511C8.57402 13.6577 8.32835 13.7933 8.05702 13.918C7.78569 14.0353 7.52169 14.138 7.26502 14.226L6.77002 12.961Z" fill="white"/>
<path d="M18.126 15.172C18.126 16.4553 17.8803 17.4417 17.389 18.131C16.905 18.813 16.234 19.154 15.376 19.154C14.518 19.154 13.8433 18.813 13.352 18.131C12.868 17.4417 12.626 16.4553 12.626 15.172C12.626 14.534 12.6883 13.9693 12.813 13.478C12.945 12.9867 13.132 12.5723 13.374 12.235C13.616 11.8977 13.9056 11.641 14.243 11.465C14.5803 11.289 14.958 11.201 15.376 11.201C16.234 11.201 16.905 11.5457 17.389 12.235C17.8803 12.917 18.126 13.896 18.126 15.172ZM16.454 15.172C16.454 14.7907 16.4356 14.446 16.399 14.138C16.3623 13.8227 16.3036 13.5513 16.223 13.324C16.1423 13.0967 16.0323 12.9207 15.893 12.796C15.7536 12.6713 15.5813 12.609 15.376 12.609C15.1706 12.609 14.9983 12.6713 14.859 12.796C14.727 12.9207 14.617 13.0967 14.529 13.324C14.4483 13.5513 14.3896 13.8227 14.353 14.138C14.3163 14.446 14.298 14.7907 14.298 15.172C14.298 15.5533 14.3163 15.9017 14.353 16.217C14.3896 16.5323 14.4483 16.8037 14.529 17.031C14.617 17.2583 14.727 17.4343 14.859 17.559C14.9983 17.6837 15.1706 17.746 15.376 17.746C15.5813 17.746 15.7536 17.6837 15.893 17.559C16.0323 17.4343 16.1423 17.2583 16.223 17.031C16.3036 16.8037 16.3623 16.5323 16.399 16.217C16.4356 15.9017 16.454 15.5533 16.454 15.172Z" fill="white"/>
</svg>
