<svg width="24" height="24" viewBox="0 0 24 24" fill="none" xmlns="http://www.w3.org/2000/svg">
<path d="M17.1875 6.6875C17.1875 4.10281 15.0847 2 12.5 2C9.91531 2 7.8125 4.10281 7.8125 6.6875V9.5H6.875C5.84094 9.5 5 10.3409 5 11.375V18.875C5 19.9091 5.84094 20.75 6.875 20.75H18.125C19.1591 20.75 20 19.9091 20 18.875V11.375C20 10.3409 19.1591 9.5 18.125 9.5H9.6875V6.6875C9.6875 5.13687 10.9494 3.875 12.5 3.875C14.0506 3.875 15.3125 5.13687 15.3125 6.6875H17.1875Z" fill="#5015CF"/>
<path opacity="0.9" d="M12.1791 14.908C12.3478 14.908 12.5238 14.8933 12.7071 14.864C12.8904 14.8273 13.0261 14.7797 13.1141 14.721V14.622C13.1141 14.5927 13.1141 14.5633 13.1141 14.534C13.1214 14.5047 13.1251 14.479 13.1251 14.457C13.1178 14.193 13.0958 13.9473 13.0591 13.72C13.0224 13.4853 12.9601 13.2837 12.8721 13.115C12.7841 12.939 12.6631 12.8033 12.5091 12.708C12.3624 12.6053 12.1791 12.554 11.9591 12.554C11.7831 12.554 11.6291 12.5907 11.4971 12.664C11.3651 12.7373 11.2588 12.8327 11.1781 12.95C11.0974 13.0673 11.0351 13.1957 10.9911 13.335C10.9544 13.4743 10.9361 13.61 10.9361 13.742C10.9361 14.138 11.0314 14.4313 11.2221 14.622C11.4201 14.8127 11.7391 14.908 12.1791 14.908ZM12.9821 15.975C12.8281 16.0483 12.6558 16.1033 12.4651 16.14C12.2818 16.1693 12.1241 16.184 11.9921 16.184C11.5154 16.184 11.1084 16.129 10.7711 16.019C10.4338 15.9017 10.1551 15.7403 9.93511 15.535C9.72244 15.3223 9.56477 15.0693 9.46211 14.776C9.35944 14.4827 9.30811 14.16 9.30811 13.808C9.30811 13.5147 9.35577 13.214 9.45111 12.906C9.55377 12.598 9.71144 12.3193 9.92411 12.07C10.1368 11.8133 10.4044 11.6043 10.7271 11.443C11.0571 11.2743 11.4531 11.19 11.9151 11.19C12.8611 11.19 13.5724 11.4833 14.0491 12.07C14.5331 12.6493 14.7751 13.4853 14.7751 14.578C14.7751 15.2967 14.6798 15.931 14.4891 16.481C14.3058 17.031 14.0161 17.493 13.6201 17.867C13.2314 18.241 12.7328 18.527 12.1241 18.725C11.5154 18.9157 10.7931 19.0147 9.95711 19.022C9.94977 18.7873 9.93877 18.56 9.92411 18.34C9.90944 18.12 9.89477 17.8927 9.88011 17.658C10.2981 17.6507 10.6758 17.6213 11.0131 17.57C11.3504 17.5113 11.6474 17.4197 11.9041 17.295C12.1608 17.163 12.3771 16.9907 12.5531 16.778C12.7364 16.5653 12.8794 16.2977 12.9821 15.975Z" fill="white"/>
</svg>
