<svg width="24" height="24" viewBox="0 0 24 24" fill="none" xmlns="http://www.w3.org/2000/svg">
<path d="M17.1875 6.6875C17.1875 4.10281 15.0847 2 12.5 2C9.91531 2 7.8125 4.10281 7.8125 6.6875V9.5H6.875C5.84094 9.5 5 10.3409 5 11.375V18.875C5 19.9091 5.84094 20.75 6.875 20.75H18.125C19.1591 20.75 20 19.9091 20 18.875V11.375C20 10.3409 19.1591 9.5 18.125 9.5H9.6875V6.6875C9.6875 5.13687 10.9494 3.875 12.5 3.875C14.0506 3.875 15.3125 5.13687 15.3125 6.6875H17.1875Z" fill="#5015CF"/>
<path d="M10.5619 19C10.6059 18.4647 10.6976 17.9073 10.8369 17.328C10.9762 16.7487 11.1449 16.1803 11.3429 15.623C11.5482 15.0657 11.7756 14.5413 12.0249 14.05C12.2742 13.5513 12.5272 13.1223 12.7839 12.763H9.4729V11.366H14.8079V12.554C14.5732 12.8107 14.3129 13.1663 14.0269 13.621C13.7482 14.0757 13.4806 14.5927 13.2239 15.172C12.9746 15.744 12.7546 16.36 12.5639 17.02C12.3806 17.68 12.2669 18.34 12.2229 19H10.5619Z" fill="white"/>
</svg>
