<svg width="24" height="24" viewBox="0 0 24 24" fill="none" xmlns="http://www.w3.org/2000/svg">
<path d="M17.1875 6.6875C17.1875 4.10281 15.0847 2 12.5 2C9.91531 2 7.8125 4.10281 7.8125 6.6875V9.5H6.875C5.84094 9.5 5 10.3409 5 11.375V18.875C5 19.9091 5.84094 20.75 6.875 20.75H18.125C19.1591 20.75 20 19.9091 20 18.875V11.375C20 10.3409 19.1591 9.5 18.125 9.5H9.6875V6.6875C9.6875 5.13687 10.9494 3.875 12.5 3.875C14.0506 3.875 15.3125 5.13687 15.3125 6.6875H17.1875Z" fill="#5015CF"/>
<path d="M9.77002 12.961C9.98269 12.873 10.2027 12.774 10.43 12.664C10.6647 12.5467 10.892 12.422 11.112 12.29C11.332 12.1507 11.541 12.0077 11.739 11.861C11.9444 11.707 12.1277 11.5457 12.289 11.377H13.433V19H11.794V13.511C11.574 13.6577 11.3284 13.7933 11.057 13.918C10.7857 14.0353 10.5217 14.138 10.265 14.226L9.77002 12.961Z" fill="white"/>
</svg>
