<svg width="24" height="24" viewBox="0 0 24 24" fill="none" xmlns="http://www.w3.org/2000/svg">
<path d="M17.1875 6.6875C17.1875 4.10281 15.0847 2 12.5 2C9.91531 2 7.8125 4.10281 7.8125 6.6875V9.5H6.875C5.84094 9.5 5 10.3409 5 11.375V18.875C5 19.9091 5.84094 20.75 6.875 20.75H18.125C19.1591 20.75 20 19.9091 20 18.875V11.375C20 10.3409 19.1591 9.5 18.125 9.5H9.6875V6.6875C9.6875 5.13687 10.9494 3.875 12.5 3.875C14.0506 3.875 15.3125 5.13687 15.3125 6.6875H17.1875Z" fill="#5015CF"/>
<path d="M14.456 13.379C14.456 13.6577 14.401 13.9253 14.291 14.182C14.181 14.4387 14.038 14.688 13.862 14.93C13.686 15.1647 13.488 15.392 13.268 15.612C13.048 15.832 12.8317 16.041 12.619 16.239C12.509 16.3417 12.388 16.459 12.256 16.591C12.1313 16.7157 12.0103 16.844 11.893 16.976C11.7757 17.108 11.6693 17.2327 11.574 17.35C11.486 17.46 11.431 17.5517 11.409 17.625H14.687V19H9.60501C9.59034 18.9193 9.58301 18.8167 9.58301 18.692C9.58301 18.5673 9.58301 18.4793 9.58301 18.428C9.58301 18.076 9.63801 17.7533 9.74801 17.46C9.86534 17.1667 10.0157 16.8953 10.199 16.646C10.3823 16.3893 10.5877 16.151 10.815 15.931C11.0497 15.711 11.2807 15.491 11.508 15.271C11.684 15.1023 11.849 14.9447 12.003 14.798C12.157 14.644 12.2927 14.4973 12.41 14.358C12.5273 14.2113 12.619 14.0683 12.685 13.929C12.751 13.7823 12.784 13.6357 12.784 13.489C12.784 13.1663 12.6923 12.939 12.509 12.807C12.3257 12.675 12.0983 12.609 11.827 12.609C11.629 12.609 11.442 12.642 11.266 12.708C11.0973 12.7667 10.9397 12.84 10.793 12.928C10.6537 13.0087 10.5327 13.093 10.43 13.181C10.3273 13.2617 10.2503 13.3277 10.199 13.379L9.38501 12.235C9.70768 11.9343 10.0817 11.6887 10.507 11.498C10.9397 11.3 11.4017 11.201 11.893 11.201C12.3403 11.201 12.7253 11.2523 13.048 11.355C13.3707 11.4577 13.6347 11.6043 13.84 11.795C14.0527 11.9783 14.2067 12.2057 14.302 12.477C14.4047 12.741 14.456 13.0417 14.456 13.379Z" fill="white"/>
</svg>
