<svg width="24" height="24" viewBox="0 0 24 24" fill="none" xmlns="http://www.w3.org/2000/svg">
<path d="M17.1875 6.6875C17.1875 4.10281 15.0847 2 12.5 2C9.91531 2 7.8125 4.10281 7.8125 6.6875V9.5H6.875C5.84094 9.5 5 10.3409 5 11.375V18.875C5 19.9091 5.84094 20.75 6.875 20.75H18.125C19.1591 20.75 20 19.9091 20 18.875V11.375C20 10.3409 19.1591 9.5 18.125 9.5H9.6875V6.6875C9.6875 5.13687 10.9494 3.875 12.5 3.875C14.0506 3.875 15.3125 5.13687 15.3125 6.6875H17.1875Z" fill="#5015CF"/>
<path d="M12.509 13.379C12.223 13.753 11.9186 14.16 11.596 14.6C11.2733 15.04 11.002 15.491 10.782 15.953H12.509V13.379ZM14.115 11.377V15.953H14.929V17.295H14.115V19H12.509V17.295H9.21997V16.096C9.3813 15.7733 9.58297 15.4103 9.82497 15.007C10.067 14.5963 10.3346 14.1783 10.628 13.753C10.9286 13.3203 11.244 12.8987 11.574 12.488C11.904 12.0773 12.234 11.707 12.564 11.377H14.115Z" fill="white"/>
</svg>
